<svg width="29" height="29" viewBox="0 0 29 29" fill="none" xmlns="http://www.w3.org/2000/svg">
<path d="M23.7954 23.9181L19.0586 19.1812L23.7954 23.9181ZM19.0586 19.1812C19.8189 18.421 20.4219 17.5184 20.8334 16.525C21.2449 15.5317 21.4566 14.467 21.4566 13.3918C21.4566 12.3166 21.2449 11.2519 20.8334 10.2585C20.4219 9.26518 19.8189 8.36259 19.0586 7.6023C18.2983 6.84202 17.3957 6.23893 16.4023 5.82746C15.409 5.416 14.3443 5.20422 13.2691 5.20422C12.1939 5.20422 11.1292 5.416 10.1359 5.82746C9.14249 6.23893 8.23991 6.84202 7.47962 7.6023C5.94416 9.13777 5.08154 11.2203 5.08154 13.3918C5.08154 15.5632 5.94416 17.6458 7.47962 19.1812C9.01509 20.7167 11.0976 21.5793 13.2691 21.5793C15.4406 21.5793 17.5231 20.7167 19.0586 19.1812V19.1812Z" stroke="white" stroke-width="3" stroke-linecap="round" stroke-linejoin="round"/>
</svg>
